<?xml version="1.0" encoding="UTF-8"?>
<svg id="Calque_2" data-name="Calque 2" xmlns="http://www.w3.org/2000/svg" viewBox="0 0 142.36 138.26">
  <defs>
    <style>
      .cls-1 {
        fill: #ea5325;
      }

      .cls-2 {
        fill: #63c5e4;
      }

      .cls-3 {
        fill: #e2d16f;
      }

      .cls-4 {
        fill: #1d1d1b;
      }
    </style>
  </defs>
  <g id="Calque_3" data-name="Calque 3">
    <path class="cls-2" d="M22.98,51.25c2.89,20.86,4.12,42.16,3.03,63.2-.18,3.47-.66,8.27-4.08,10.15-2.05,1.12-4.05-1.06-5.26-2.56s-2.1-3.31-2.73-5.14c-1.43-4.14-1.83-8.56-2.16-12.9-.4-5.29-.51-10.59-.61-15.89-.22-11.95-.44-23.9-.66-35.85-.03-1.61-2.53-1.61-2.5,0,.21,11.46,.42,22.92,.64,34.38,.1,5.63,.19,11.26,.6,16.87,.34,4.7,.74,9.56,2.29,14.05,1.27,3.67,3.74,8.19,7.62,9.64,4.29,1.6,7.59-3.4,8.55-6.88,1.27-4.61,1-9.72,1.08-14.45,.1-5.74,.06-11.48-.12-17.22-.4-12.74-1.51-25.44-3.26-38.07-.22-1.59-2.63-.91-2.41,.66h0Z"/>
    <path class="cls-2" d="M10.62,52.6c-.07-4.06-.96-8.03-2.63-11.73s-4.84-6.63-5.34-10.62c-.27-2.12-.11-4.32-.09-6.45,.02-2.32,.04-4.65,.07-6.97,.04-4.65,.09-9.3,.13-13.94,.02-1.61-2.48-1.61-2.5,0-.04,4.65-.09,9.3-.13,13.94-.02,2.32-.04,4.65-.07,6.97-.02,2.12-.15,4.28,.08,6.39,.44,4.08,3.06,6.88,4.92,10.36,1.98,3.71,3,7.85,3.07,12.04,.03,1.61,2.53,1.61,2.5,0h0Z"/>
    <path class="cls-2" d="M25.43,50.92c.07-4.19,1.09-8.34,3.07-12.04,1.86-3.48,4.47-6.28,4.92-10.36,.23-2.11,.1-4.27,.08-6.39-.02-2.32-.04-4.65-.07-6.97-.04-4.65-.09-9.3-.13-13.94-.02-1.61-2.52-1.61-2.5,0,.04,4.65,.09,9.3,.13,13.94,.02,2.32,.04,4.65,.07,6.97,.02,2.13,.18,4.33-.09,6.45-.5,3.99-3.73,7.05-5.34,10.62s-2.56,7.67-2.63,11.73c-.03,1.61,2.47,1.61,2.5,0h0Z"/>
    <path class="cls-2" d="M15.5,3.14c.27,7.89-1.68,15.69-1,23.59,.14,1.59,2.64,1.61,2.5,0-.68-7.89,1.27-15.7,1-23.59-.05-1.6-2.56-1.61-2.5,0h0Z"/>
    <path class="cls-3" d="M18.12,54.26c7.79-3.43,16.42-3.91,24.8-4.37,1.6-.09,1.61-2.59,0-2.5-8.86,.49-17.83,1.09-26.06,4.71-1.47,.65-.2,2.8,1.26,2.16h0Z"/>
    <path class="cls-3" d="M29.87,51.94c.64,2.11,1.12,4.27,1.34,6.46,.2,1.91,.08,3.84,.29,5.74,.16,1.5,.56,3.04,1.68,4.12,1.18,1.14,3.01,1.6,4.36,.47,1.26-1.06,1.78-3.07,2.22-4.59,.57-1.96,.81-3.96,.99-5.98s.61-3.66,2.64-4.41c1.65-.61,3.52-.69,5.22-.23,3.22,.87,5.68,4.05,4.86,7.46-.76,3.17-5.06,5.41-8.18,5.14-3.86-.33-1.31-8.05,2.37-4.82,1.33,1.17,2.4,2.55,3.88,3.58s3.21,1.66,5,1.61c4.02-.12,7.27-3.09,8.83-6.62,.84-1.9,1.31-3.92,1.56-5.98,.23-1.82,.08-3.81-1.39-5.09-.64-.56-1.48-.44-1.96,.25-1.09,1.56,.79,2.93,1.74,3.94,1.42,1.52,2.68,3.18,3.74,4.97,.52,.87,1.13,1.9,1.06,2.96-.04,.61-.49,1.82-1.33,1.47-1.18-.49,.81-1.17,1.23-1.2,.94-.06,1.9,.13,2.84,.12,3.87-.05,6.71-2.24,7.37-6.12,.36-2.09,.17-4.23,.4-6.34s.82-4.22,1.63-6.21c.53-1.3-1.25-1.89-2.09-1.22-1.8,1.45-2.06,3.96-2.41,6.09-.46,2.83-.78,5.68-.93,8.54-.13,2.38-.44,5.16,.77,7.34,.93,1.68,2.7,2.62,4.58,2.76,4.41,.33,7.3-3.51,7.59-7.58,.12-1.67,0-5.04-2.51-4.58-1.01,.18-2.04,1.11-2.8,1.76-.86,.73-1.61,1.65-2.01,2.71-.74,1.97-.14,4.54,1.87,5.5,1.27,.61,2.69,.31,4,0,1.59-.36,3.17-.74,4.75-1.1s.9-2.78-.66-2.41c-1.28,.3-2.57,.6-3.85,.89-.99,.23-2.78,.98-3.57,.01-.61-.75-.36-1.9,.12-2.64,.3-.46,.71-.86,1.12-1.21,.33-.28,1.19-1.09,1.68-1.03l-.88-.37c.39,.32,.28,1.47,.27,1.91,0,.68-.1,1.34-.29,2-.32,1.13-.95,2.23-1.93,2.92-1.86,1.3-4.8,.91-5.57-1.42-.46-1.41-.29-3.04-.23-4.5,.07-1.7,.2-3.4,.38-5.09s.44-3.47,.76-5.2c.24-1.3,.43-2.67,1.52-3.55l-2.09-1.22c-.74,1.82-1.28,3.7-1.56,5.64s-.21,4.04-.38,6.08c-.15,1.79-.7,3.82-2.47,4.63-1.66,.76-3.46,.35-5.21,.36-1.58,0-3.21,.57-3.97,2.06-.67,1.32-.23,2.91,1.05,3.68,2.97,1.81,5.63-1.43,5.26-4.3-.27-2.07-1.59-3.97-2.79-5.62-.57-.79-1.18-1.57-1.82-2.31-.38-.44-.77-.87-1.17-1.29-.15-.16-.3-.31-.46-.47-.1-.1-.21-.21-.31-.31-.16-.25-.26-.19-.27,.18l-1.96,.25c1.4,1.22,.62,3.87,.26,5.42-.47,2.01-1.25,4.03-2.66,5.57-1.24,1.35-2.98,2.38-4.84,2.43-2.12,.07-3.9-1.21-5.34-2.64-1.26-1.25-2.43-2.78-4.21-3.28s-3.41,.22-4.54,1.52c-2.16,2.47-2.43,7.23,1.06,8.66,3.12,1.28,7.48-.55,9.87-2.6,2.77-2.37,3.4-6.22,1.95-9.5s-4.85-5.21-8.41-5.39-7.52,1.31-8.37,5.17c-.52,2.36-.43,4.77-1.07,7.12-.3,1.09-.61,2.35-1.2,3.32-.73,1.2-1.72-.16-2.01-1.01-.69-2.02-.32-4.39-.51-6.49-.23-2.58-.73-5.11-1.48-7.59-.46-1.54-2.88-.88-2.41,.66h0Z"/>
    <path class="cls-3" d="M92.62,62.96c1.52-.07,2.7-.98,3.96-1.74,1.55-.93,3.11-1.86,4.66-2.79,2.82-1.69,5.61-3.66,8.62-5,2.44-1.09,5.92-1.44,7.82,.86,1.58,1.91,1.49,4.74,.17,6.74-1.39,2.12-4.03,3.45-6.54,3.52-3.05,.08-5.22-2.51-4.89-5.54s4.58-2.56,6.82-2.86c2.96-.39,6.08-1.17,8.71-2.63,4.45-2.47,5.6-9.54,4.08-14.02-.66-1.94-2.27-5.05-4.8-4.54-2.87,.58-2.21,4.5-1.74,6.51,.73,3.16,2.12,6.16,3.07,9.26s1.77,6.38,2.38,9.64c1.04,5.57,2.52,13.59-4.21,16.07-1.41,.52-3.04,1.03-3.92-.54-.65-1.16-.45-2.47,.24-3.56,1.71-2.7,5.34-3.84,8.09-5.09s5.56-2.77,7.44-5.28,2.35-5.56,1.14-8.39c-.63-1.48-2.78-.2-2.16,1.26,1.3,3.03-.92,6.15-3.3,7.86-2.59,1.85-5.67,2.81-8.47,4.27-2.39,1.25-4.8,3.01-5.65,5.69-.7,2.21,.11,5.02,2.17,6.24,2.36,1.4,5.83-.02,7.87-1.45,2.47-1.73,3.73-4.61,4.07-7.53,.39-3.39-.29-6.9-.91-10.23s-1.48-6.78-2.52-10.09-2.79-6.73-3.2-10.27c-.03-.28-.25-1.68,.05-1.85,.46-.26,1.13,.98,1.3,1.27,.74,1.27,1.1,2.72,1.16,4.18,.1,2.62-.61,6.52-2.94,8.11-2.69,1.84-6.57,2.55-9.76,2.78-2.52,.19-5.42,.33-6.83,2.79s-.59,5.84,1.04,7.93c3.59,4.61,11.08,2.26,14.07-1.82,1.73-2.36,2.14-5.51,.99-8.21-1.23-2.89-4.09-4.45-7.17-4.44-3.72,0-6.87,2.2-9.94,4.04-1.77,1.06-3.53,2.11-5.3,3.17-.85,.51-1.7,1.01-2.54,1.52s-2.09,1.61-3.13,1.65c-1.6,.07-1.61,2.57,0,2.5h0Z"/>
    <path class="cls-1" d="M26.56,89.42c5.87-1.87,11.69-3.9,17.44-6.11,1.49-.57,.84-2.99-.66-2.41-5.75,2.21-11.57,4.25-17.44,6.11-1.53,.49-.87,2.9,.66,2.41h0Z"/>
    <path class="cls-1" d="M30.39,112.93c-.51-8.27-1.92-16.49-2.92-24.71-.19-1.58-2.69-1.6-2.5,0,.99,8.22,2.4,16.44,2.92,24.71,.1,1.6,2.6,1.61,2.5,0h0Z"/>
    <path class="cls-1" d="M28.39,100.46c4.12-.17,8.13-1.22,11.81-3.07,.6-.3,.77-1.15,.45-1.71-.36-.61-1.11-.75-1.71-.45-3.27,1.65-6.88,2.58-10.55,2.73-1.6,.07-1.61,2.57,0,2.5h0Z"/>
    <path class="cls-1" d="M29.14,114.18c9.98,.23,16.55-8.28,20.55-16.37l-2.33-.63c-.07,2.85,.5,5.64,1.68,8.24,.89,1.97,2.62,5.54,5.32,4.4,2.17-.91,3.78-3.92,4.68-5.95,1.12-2.53,1.65-5.26,1.55-8.03-.05-1.34-2.19-1.78-2.46-.33-.49,2.67-.77,5.38-.76,8.1,0,1.99-.27,5,2.16,5.7,1.95,.56,4.16-.55,5.52-1.9,1.68-1.68,2.44-3.96,2.77-6.26,.23-1.6,1-4.75-.93-5.64s-3.05,1.8-1.88,3.18c.58,.68,1.46,.87,2.31,.92,1.43,.09,2.88,.03,4.31,.04,.77,0,2.55-.29,2.6,.79,.06,1.32-.38,2.85-.57,4.16-.29,2.02-.79,4.6,1.99,4.82,1.98,.16,4.08-.52,5.72-1.6,1.74-1.14,3.15-2.76,3.99-4.67s.91-4.11,1.75-6.04c.78-1.82,2.46-2.61,4.34-1.95,2.07,.72,3.11,2.65,3.07,4.78s-1.21,5.19-3.24,6.3c-1.91,1.05-4.33,.37-5.89-.99-1.75-1.53-2.81-4.09-1.85-6.34,1.12-2.62,4.72-2,7-1.92,4.96,.19,11.17-.36,13.52-5.55l-2.28-.3c3.53,11.49,.48,23.69,2.12,35.43,.19,1.38,2.6,1.07,2.46-.33-.86-8.15-1.96-16.44-1.83-24.64,.05-2.93,1.14-8.01,5.11-7.69,1.65,.13,2.87,1.56,3.38,3.04,.65,1.85,.2,3.62,.34,5.5,.28,3.57,5.1,2.5,7.17,1.33,2.8-1.58,4.47-4.69,4.21-7.9-.12-1.51-.61-3.12-1.58-4.31-.83-1.02-2.36-1.77-3.58-.92s-1.41,2.94-1.56,4.33c-.2,1.79-.06,3.62,.37,5.36s1.26,3.59,2.86,4.6c1.36,.86,3.06,.98,4.6,.64,3.63-.81,5.63-4.19,7.14-7.29,.7-1.44-1.45-2.71-2.16-1.26-1.13,2.33-2.48,5.14-5.13,6.01-1.08,.35-2.41,.37-3.35-.36-1.24-.97-1.63-2.93-1.82-4.4s-.13-3.03,.2-4.49c.2-.89,.28-1.04,.78-.23,.42,.68,.65,1.52,.74,2.32,.29,2.84-1.48,5.45-4.2,6.27-.46,.14-1.38,.42-1.86,.25-.64-.23-.22,.12-.34-.29-.08-.26,.05-.73,.06-.98,.1-1.61,.04-3.28-.48-4.82-.8-2.38-2.71-4.48-5.3-4.82s-4.96,1.18-6.37,3.24c-1.67,2.44-1.79,5.58-1.73,8.43,.17,7.73,1.01,15.43,1.82,23.11l2.46-.33c-1.65-11.77,1.43-23.87-2.12-35.43-.29-.94-1.82-1.33-2.28-.3-1.73,3.82-6.19,4.41-9.93,4.35-3.37-.06-7.82-.9-10.12,2.29-4.28,5.96,3.18,14.3,9.66,12.02,3.38-1.19,5.36-5.32,5.5-8.71s-1.7-6.33-4.9-7.39-6.05,.48-7.3,3.42c-.66,1.55-.86,3.22-1.32,4.82s-1.41,3.13-2.76,4.23c-.71,.58-1.54,1.05-2.41,1.34-.45,.15-.92,.27-1.4,.33-.18,.02-.36,.04-.55,.04,.01,0-1-.06-.62,.11,.27,.13-.01,.06,.1-.17,.13-.26,.11-.83,.15-1.14,.09-.62,.17-1.23,.26-1.85,.15-1.08,.37-2.17,.45-3.25,.14-2.01-1.24-3.18-3.13-3.41-1.06-.13-2.14-.07-3.21-.08-.66,0-1.33,0-1.99-.01-.25,0-.5,0-.75,0-.17,0-.33,0-.49-.03-.24-.08-.33,.05-.26,.41l-.88,.37c-.34-.28-.48-.25-.4,.09-.02,.29-.04,.59-.06,.88-.03,.44-.07,.88-.12,1.32-.12,1.05-.31,2.11-.67,3.1-.56,1.54-1.74,3.11-3.39,3.55-.25,.07-.93,.24-1.18,.09-.27-.17-.22-.62-.25-.92-.07-1.02-.09-2.05-.08-3.07,.03-2.26,.26-4.5,.66-6.72l-2.46-.33c.14,3.93-1.14,7.92-3.8,10.87-.31,.35-.61,.83-1.06,.69-.4-.12-.73-.87-.94-1.2-.54-.86-1.02-1.77-1.38-2.72-.77-2.03-1.11-4.13-1.06-6.3,.03-1.2-1.77-1.76-2.33-.63-3.6,7.27-9.33,15.34-18.39,15.13-1.61-.04-1.61,2.46,0,2.5h0Z"/>
    <path class="cls-3" d="M77.64,49.82c5.43,2.31,11.87,1.75,16.68-1.74,.55-.4,.81-1.09,.45-1.71-.32-.54-1.16-.85-1.71-.45-4.03,2.92-9.53,3.71-14.16,1.74-.62-.26-1.34-.19-1.71,.45-.31,.53-.18,1.44,.45,1.71h0Z"/>
    <path class="cls-4" d="M141.15,106.13c1.61,0,1.61-2.5,0-2.5s-1.61,2.5,0,2.5h0Z"/>
    <path class="cls-4" d="M116.45,127.31c2.6-1.52,5.37-3.5,5.99-6.66,.26-1.32,.1-3.01-.48-4.24-.48-1.02-1.64-.93-2.24-.07-.86,1.23-.92,3.12-1.05,4.57-.17,1.89-.21,3.79-.25,5.69s-.07,3.79-.23,5.68c-.11,1.37-.03,4.15-1.54,4.83l.92,.37c-.84-3.65,2.15-7,4.18-9.68,.66-.87,1.97-2.12,1.74-3.33s-1.48-1.09-2.11-.33c-1.54,1.84-1.24,6.62,1.98,6.21,2.91-.37,4.33-3.94,3.88-6.48-.12-.69-1.28-.54-1.23,.17,.06,.83,.55,1.14,1.12,1.67,.73,.68,.69,1.88-.19,2.43-.68,.43-.05,1.51,.63,1.08,.86-.54,1.35-1.44,1.33-2.47-.01-.47-.14-.95-.38-1.35-.26-.43-1.23-.9-1.26-1.37l-1.23,.17c.19,1.06,0,2.13-.54,3.07s-2.03,2.5-3.14,1.61-.58-2.53-.23-3.59c.29-.87-.28,.27-.44,.5-.29,.42-.6,.83-.91,1.24-2.31,3.06-5.37,6.65-4.41,10.78,.1,.43,.57,.53,.92,.37,2.09-.95,2.02-4.2,2.17-6.11,.24-3.04,.17-6.09,.33-9.14,.08-1.51,.16-3.05,.51-4.53,.12-.52,.44-1.96,.75-.74,.17,.7,.32,1.4,.27,2.12-.21,3.09-3.07,5.02-5.48,6.43-.69,.41-.07,1.49,.63,1.08h0Z"/>
    <path class="cls-4" d="M129.74,119.66l-1.24,7.26c-.16,.94-.47,2.09,.34,2.82s2.03,.53,2.81-.06c.64-.48,.01-1.56-.63-1.08-.32,.24-.73,.44-1.14,.32-.35-.11-.36-.41-.33-.73,.07-.88,.29-1.76,.44-2.63l.95-5.56c.13-.79-1.07-1.12-1.21-.33h0Z"/>
    <path class="cls-4" d="M130.73,124.62l1.37-.17c.09,0,.17-.01,.24-.05,.08-.03,.14-.07,.2-.13,.11-.11,.19-.29,.18-.44s-.06-.33-.18-.44c-.11-.1-.28-.2-.44-.18l-1.37,.17c-.09,0-.17,.01-.24,.05-.08,.03-.14,.07-.2,.13-.11,.11-.19,.29-.18,.44s.06,.33,.18,.44c.11,.1,.28,.2,.44,.18h0Z"/>
    <path class="cls-4" d="M135.35,129.07c.8,0,.81-1.25,0-1.25s-.81,1.25,0,1.25h0Z"/>
  </g>
</svg>